PathFileType	4	(X/Y/Z)	/home/abdul/Desktop/myosuite/custom_workspace/IK/output/S16_12_2.trc
DataRate	CameraRate	NumFrames	NumMarkers	Units	OrigDataRate	OrigDataStartFrame	OrigNumFrames
200.0	200.0	22	3	mm	200.0	801	1280
Frame#	Time	V_Shoulder			V_Elbow			V_Wrist		
		X1	Y1	Z1	X2	Y2	Z2	X3	Y3	Z3

801	4.0	-109.02155479031994	574.0551286405794	301.0436866312275	-241.83496983553928	412.5822539782091	53.18979987377997	-104.43770678981917	202.20043704747323	60.79212972520073
802	4.005	-109.03227843202352	574.0223116766911	301.02060977479164	-241.82252078717863	412.6014356451788	53.1304314498873	-104.47446941352025	202.21181685792274	60.52891467768191
803	4.01	-109.04379225007403	573.9907086938059	300.99762775363405	-241.81065435492906	412.62064349367637	53.0725247462188	-104.51036892853814	202.22232998432443	60.265196994409536
804	4.015	-109.05608518089416	573.9603173885223	300.97474860159247	-241.79926007955157	412.63976069922626	53.016074726221404	-104.54512824998392	202.2318201410416	60.00115987668765
805	4.02	-109.06914607872325	573.9311360108849	300.9519803259224	-241.78822800557137	412.658672699324	52.96107246054646	-104.57847346271365	202.24013319608173	59.73699441574899
806	4.025	-109.08296365247197	573.9031633643427	300.929330978926	-241.77744933569954	412.67726760540984	52.90750537533489	-104.61013517541863	202.24711763358061	59.472900050325634
807	4.03	-109.0975264032761	573.8763988071224	300.90680873035666	-241.7668170930567	412.6954366217561	52.85535750810258	-104.6398499005692	202.2526250409474	59.209085026574414
808	4.035	-109.11282256303274	573.8508422550849	300.8844219402343	-241.75622678882746	412.71307447059144	52.804609769927595	-104.66736145699227	202.25651062022658	58.94576685691547
809	4.04	-109.12884003420027	573.8264941861363	300.8621792317037	-241.74557709293168	412.7300798227459	52.7552402126455	-104.69242239168054	202.25863372310084	58.68317277420351
810	4.045	-109.14556633114164	573.803355646248	300.84008956356246	-241.73477050526068	412.7463557330533	52.70722429976829	-104.7147954172504	202.25885840882788	58.421540177523745
811	4.05	-109.16298852328555	573.7814282571412	300.8181623020851	-241.7237140249988	412.7618100797043	52.66053517985847	-104.73425486128558	202.25705402426846	58.16111706579029
812	4.055	-109.1810931803761	573.7607142256797	300.7964072917661	-241.71231981552683	412.7763560066991	52.61514396111015	-104.75058812362698	202.2530958050275	57.902162455224314
813	4.06	-109.19986632007603	573.7412163550098	300.77483492460493	-241.70050586238943	412.78991236849913	52.571019985914944	-104.76359713749676	202.2468654965906	57.64494677670344
814	4.065	-109.21929335818076	573.7229380574753	300.7534562075609	-241.68819662180027	412.8024041759319	52.52813110422085	-104.77309983017682	202.23825199420048	57.38975224890534
815	4.07	-109.23935906169415	573.7058833693319	300.7322828278026	-241.6753236571604	412.8137630423561	52.48644394452753	-104.77893157879977	202.22715200007917	57.13687322311554
816	4.075	-109.26004750500722	573.6900569672707	300.711327215389	-241.66182626107093	412.82392762904783	52.4459241813997	-104.78094665665735	202.21347069646106	56.886616495536266
817	4.08	-109.28134202941202	573.6754641867545	300.69060260301654	-241.64765206033803	412.8328440887216	52.406536798423645	-104.77901966528444	202.19712243276538	56.639301582918
818	4.085	-109.30322520617217	573.662111042163	300.67012308248127	-241.63275760149116	412.84046650605205	52.368246345577745	-104.77304694744213	202.17803142509763	56.39526095734119
819	4.09	-109.32567880336053	573.6500042487302	300.649903657508	-241.6171089143674	412.84675733402173	52.33101719003709	-104.76294797599866	202.15613246613506	56.15484023600169
820	4.095	-109.34868375666188	573.6391512462461	300.629960292612	-241.60068205135286	412.8516878248741	52.29481375948369	-104.74866671359456	202.1313716433183	55.9183983219019
821	4.1	-109.37222014432602	573.6295602244933	300.6103099576678	-241.5834635999214	412.8552384544082	52.25960077704842	-104.73017293788087	202.1037070631393	55.68630749142068
822	4.105	-109.3962671664428	573.6212401503644	300.5909706678728	-241.56545116616422	412.85739933831735	52.225343487065985	-104.70746352703543	202.0731095791917	55.45895342482848
